Coordinates
version=1
nRows=11
nColumns=40
inDegrees=yes

Units are S.I. units (second, meters, Newtons, ...)
If the header above contains a line with 'inDegrees', this indicates whether rotational values are in degrees (yes) or radians (no).

endheader
time	pelvis_tilt	pelvis_list	pelvis_rotation	pelvis_tx	pelvis_ty	pelvis_tz	hip_flexion_r	hip_adduction_r	hip_rotation_r	knee_angle_r	knee_angle_r_beta	ankle_angle_r	subtalar_angle_r	mtp_angle_r	hip_flexion_l	hip_adduction_l	hip_rotation_l	knee_angle_l	knee_angle_l_beta	ankle_angle_l	subtalar_angle_l	mtp_angle_l	lumbar_extension	lumbar_bending	lumbar_rotation	arm_flex_r	arm_add_r	arm_rot_r	elbow_flex_r	pro_sup_r	wrist_flex_r	wrist_dev_r	arm_flex_l	arm_add_l	arm_rot_l	elbow_flex_l	pro_sup_l	wrist_flex_l	wrist_dev_l
      5.35000000	    -46.25950370	      0.00534052	      3.74115984	      0.05421769	      0.60248267	     -1.14959224	    112.69803589	    -41.38669731	      1.78356758	     85.98839944	      1.50078069	     14.78567512	     -2.25310971	      0.00000000	    110.45802705	    -35.63694928	     -2.88094820	     79.07873740	      1.38018434	     10.39874871	      7.82920970	      0.00000000	      0.00000000	      0.00000000	      0.00000000	     44.99982576	    -15.00000027	     44.99982576	     75.00017585	     45.00000026	      0.00000000	      0.00000000	     44.99982576	    -15.00000027	     44.99982576	     75.00017585	     45.00000026	      0.00000000	      0.00000000
      5.35500000	    -46.31509900	      0.01679861	      3.72464365	      0.05417063	      0.60491278	     -1.14968184	    112.32250295	    -41.34157561	      1.46669008	     85.50634365	      1.49236723	     14.64371646	     -2.24554166	      0.00000000	    110.09527801	    -35.58914764	     -3.16649499	     78.61200397	      1.37203830	     10.24266676	      7.81173989	      0.00000000	      0.00000000	      0.00000000	      0.00000000	     44.99982602	    -15.00000026	     44.99982602	     75.00017585	     45.00000026	      0.00000000	      0.00000000	     44.99982602	    -15.00000026	     44.99982602	     75.00017585	     45.00000026	      0.00000000	      0.00000000
      5.36000000	    -46.28666353	      0.03298225	      3.71644427	      0.05423730	      0.60751216	     -1.14979210	    111.85566137	    -41.32493552	      1.12762777	     85.02770173	      1.48401335	     14.49195098	     -2.26022579	      0.00000000	    109.63262888	    -35.54378447	     -3.47407366	     78.14648067	      1.36391339	     10.08044453	      7.78837622	      0.00000000	      0.00000000	      0.00000000	      0.00000000	     44.99982631	    -15.00000026	     44.99982631	     75.00017585	     45.00000026	      0.00000000	      0.00000000	     44.99982631	    -15.00000026	     44.99982631	     75.00017585	     45.00000026	      0.00000000	      0.00000000
      5.36500000	    -46.26411917	      0.04365359	      3.71843428	      0.05435258	      0.61000618	     -1.14996566	    111.40580564	    -41.32858155	      0.80067618	     84.56184152	      1.47588256	     14.35593758	     -2.24040371	      0.00000000	    109.19528912	    -35.49185186	     -3.77189939	     77.71115682	      1.35631555	      9.95421666	      7.78545995	      0.00000000	      0.00000000	      0.00000000	      0.00000000	     44.99982659	    -15.00000026	     44.99982659	     75.00017585	     45.00000026	      0.00000000	      0.00000000	     44.99982659	    -15.00000026	     44.99982659	     75.00017585	     45.00000026	      0.00000000	      0.00000000
      5.37000000	    -46.26794844	      0.05209724	      3.71340827	      0.05445508	      0.61239104	     -1.15011984	    110.99018670	    -41.31468924	      0.48807439	     84.10263739	      1.46786793	     14.22801068	     -2.20442759	      0.00000000	    108.79227560	    -35.44107114	     -4.05462005	     77.27186861	      1.34864853	      9.83168112	      7.79164178	      0.00000000	      0.00000000	      0.00000000	      0.00000000	     44.99982685	    -15.00000026	     44.99982685	     75.00017585	     45.00000026	      0.00000000	      0.00000000	     44.99982685	    -15.00000026	     44.99982685	     75.00017585	     45.00000026	      0.00000000	      0.00000000
      5.37500000	    -46.03994205	      0.05834915	      3.76512576	      0.05488723	      0.61535155	     -1.15047131	    110.29000584	    -41.42647106	      0.09838612	     83.62243159	      1.45948676	     14.10266264	     -2.20457662	      0.00000000	    108.11574502	    -35.36407152	     -4.41124210	     76.83978539	      1.34110725	      9.70675613	      7.81928905	      0.00000000	      0.00000000	      0.00000000	      0.00000000	     44.99982719	    -15.00000026	     44.99982719	     75.00017585	     45.00000026	      0.00000000	      0.00000000	     44.99982719	    -15.00000026	     44.99982719	     75.00017585	     45.00000026	      0.00000000	      0.00000000
      5.38000000	    -46.09363449	      0.05787486	      3.75184286	      0.05499082	      0.61749012	     -1.15061265	    109.94658141	    -41.40217014	     -0.19900395	     83.20048207	      1.45212235	     13.99823121	     -2.12295972	      0.00000000	    107.79483669	    -35.32480861	     -4.65855596	     76.42769130	      1.33391485	      9.61435695	      7.83813137	      0.00000000	      0.00000000	      0.00000000	      0.00000000	     44.99982745	    -15.00000026	     44.99982745	     75.00017585	     45.00000026	      0.00000000	      0.00000000	     44.99982745	    -15.00000026	     44.99982745	     75.00017585	     45.00000026	      0.00000000	      0.00000000
      5.38500000	    -46.09317987	      0.05883368	      3.74594556	      0.05520504	      0.61974043	     -1.15079556	    109.53314713	    -41.39308603	     -0.50341803	     82.76543366	      1.44452932	     13.87836714	     -2.07454068	      0.00000000	    107.41355628	    -35.29001938	     -4.93465733	     76.02026084	      1.32680385	      9.49484133	      7.84703458	      0.00000000	      0.00000000	      0.00000000	      0.00000000	     44.99982774	    -15.00000026	     44.99982774	     75.00017585	     45.00000026	      0.00000000	      0.00000000	     44.99982774	    -15.00000026	     44.99982774	     75.00017585	     45.00000026	      0.00000000	      0.00000000
      5.39000000	    -46.08472935	      0.07029509	      3.72790291	      0.05559535	      0.62131034	     -1.15098406	    109.28394482	    -41.44095067	     -0.75389271	     82.54664595	      1.44071076	     13.76450916	     -2.04653884	      0.00000000	    107.17613589	    -35.32671355	     -5.15248508	     75.86077467	      1.32402029	      9.40737924	      7.78896907	      0.00000000	      0.00000000	      0.00000000	      0.00000000	     44.99982796	    -15.00000026	     44.99982796	     75.00017585	     45.00000026	      0.00000000	      0.00000000	     44.99982796	    -15.00000026	     44.99982796	     75.00017585	     45.00000026	      0.00000000	      0.00000000
      5.39500000	    -45.70155830	      0.06698329	      3.83135895	      0.05621519	      0.62511230	     -1.15149122	    108.24767004	    -41.58342325	     -1.21997876	     81.87919341	      1.42906151	     13.69498347	     -1.92773432	      0.00000000	    106.18236369	    -35.16104571	     -5.57846644	     75.22490234	      1.31292223	      9.39199759	      7.99959662	      0.00000000	      0.00000000	      0.00000000	      0.00000000	     44.99982846	    -15.00000025	     44.99982846	     75.00017585	     45.00000026	      0.00000000	      0.00000000	     44.99982846	    -15.00000025	     44.99982846	     75.00017585	     45.00000026	      0.00000000	      0.00000000
      5.40000000	    -45.76322885	      0.06714895	      3.80392600	      0.05642021	      0.62703004	     -1.15163284	    107.93407036	    -41.54303743	     -1.49586943	     81.47555796	      1.42201675	     13.57200023	     -1.86742781	      0.00000000	    105.90856748	    -35.14819246	     -5.81197585	     74.85378323	      1.30644497	      9.24157073	      7.98907886	      0.00000000	      0.00000000	      0.00000000	      0.00000000	     44.99982874	    -15.00000025	     44.99982874	     75.00017585	     45.00000026	      0.00000000	      0.00000000	     44.99982874	    -15.00000025	     44.99982874	     75.00017585	     45.00000026	      0.00000000	      0.00000000
